<?xml version="1.0" encoding="iso-8859-1"?>
<!-- Uploaded to: SVG Repo, www.svgrepo.com, Generator: SVG Repo Mixer Tools -->
<svg fill="#000000" height="800px" width="800px" version="1.1" id="Layer_1" xmlns="http://www.w3.org/2000/svg" xmlns:xlink="http://www.w3.org/1999/xlink" 
	 viewBox="0 0 512.001 512.001" xml:space="preserve">
<g>
	<g>
		<path d="M189.744,197.222c-20.92-20.474-48.768-31.741-78.438-31.741c-0.069,0-0.14,0-0.209,0
			C49.729,165.592-0.109,215.607,0,276.975c0.045,25.227,16.407,63.132,50.02,115.878c23.791,37.334,47.191,67.699,48.175,68.973
			c3.21,4.156,8.164,6.587,13.413,6.587c0.024,0,0.047,0,0.071,0c5.274-0.023,10.238-2.498,13.427-6.699
			c0.98-1.29,24.261-32.029,47.912-69.743c33.401-53.264,49.617-91.408,49.571-116.613
			C222.536,245.649,210.871,217.9,189.744,197.222z M111.489,423.028c-34.353-47.248-77.54-116.433-77.593-146.112
			c-0.076-42.678,34.584-77.462,77.262-77.538c0.049,0,0.097,0,0.147,0c20.752,0,40.186,7.836,54.732,22.071
			c14.574,14.263,22.621,33.431,22.657,53.973C188.746,305.125,145.709,375.168,111.489,423.028z"/>
	</g>
</g>
<g>
	<g>
		<path d="M488.206,56.999c-15.136-14.812-35.273-22.966-56.719-22.966c-0.05,0-0.101,0-0.15,0c0,0,0,0-0.001,0
			c-44.399,0.079-80.456,36.266-80.378,80.665c0.032,18.08,11.34,44.589,34.57,81.043c16.164,25.365,32.079,46.018,32.749,46.885
			c3.21,4.156,8.163,6.587,13.411,6.587c0.024,0,0.047,0,0.071,0c5.274-0.023,10.239-2.498,13.427-6.699
			c0.667-0.877,16.499-21.781,32.565-47.401c23.078-36.799,34.281-63.465,34.249-81.523
			C511.963,92.075,503.513,71.976,488.206,56.999z M431.575,203.574c-22.509-31.78-46.691-72.193-46.722-88.936
			c-0.044-25.71,20.835-46.663,46.544-46.709c0.031,0,0.06,0,0.089,0c26.103,0,46.572,20.066,46.618,45.721
			C478.134,130.442,454.012,171.378,431.575,203.574z"/>
	</g>
</g>
<g>
	<g>
		<path d="M298.211,443.914c-9.354,0.011-16.924,7.615-16.914,16.97c0.024,9.355,7.604,16.925,16.948,16.925
			c0.011,0,0.024,0,0.034,0c9.355-0.023,16.937-7.627,16.914-16.982C315.182,451.473,307.577,443.892,298.211,443.914z"/>
	</g>
</g>
<g>
	<g>
		<path d="M308.957,305.789c-9.028-2.452-18.338,2.892-20.779,11.931c-2.452,9.028,2.894,18.338,11.932,20.778
			c1.48,0.407,2.971,0.599,4.44,0.599c7.457,0,14.304-4.971,16.349-12.53C323.339,317.54,317.996,308.23,308.957,305.789z"/>
	</g>
</g>
<g>
	<g>
		<path d="M479.96,367.897c-2.633-8.982-12.044-14.123-21.027-11.491c-8.994,2.633-14.135,12.044-11.491,21.027
			c2.158,7.389,8.916,12.191,16.247,12.191c1.582,0,3.186-0.226,4.779-0.689C477.451,386.291,482.592,376.88,479.96,367.897z"/>
	</g>
</g>
<g>
	<g>
		<path d="M207.382,444.072c-9.355,0.023-16.925,7.615-16.914,16.982c0.023,9.344,7.604,16.914,16.948,16.914
			c0.011,0,0.023,0,0.034,0c9.355-0.011,16.937-7.615,16.914-16.982C224.353,451.631,216.749,444.061,207.382,444.072z"/>
	</g>
</g>
<g>
	<g>
		<path d="M161.509,444.072c-9.355,0.023-16.925,7.615-16.914,16.982c0.023,9.344,7.604,16.914,16.948,16.914
			c0.011,0,0.023,0,0.034,0c9.355-0.011,16.937-7.615,16.914-16.982C178.479,451.631,170.875,444.061,161.509,444.072z"/>
	</g>
</g>
<g>
	<g>
		<path d="M467.915,401.443c-8.7-3.435-18.552,0.836-21.987,9.547c-3.423,8.7,0.847,18.541,9.547,21.976
			c2.045,0.814,4.147,1.186,6.214,1.186c6.757,0,13.14-4.068,15.773-10.734C480.899,414.719,476.627,404.878,467.915,401.443z"/>
	</g>
</g>
<g>
	<g>
		<path d="M447.342,442.491c-4.768-8.056-15.163-10.711-23.219-5.943c-8.056,4.768-10.711,15.174-5.943,23.219
			c3.175,5.344,8.813,8.316,14.598,8.316c2.938,0,5.92-0.768,8.632-2.373C449.455,460.93,452.121,450.535,447.342,442.491z"/>
	</g>
</g>
<g>
	<g>
		<path d="M447.828,322.545c-7.594-5.469-18.191-3.751-23.659,3.842c-5.48,7.593-3.751,18.179,3.842,23.659
			c2.993,2.158,6.463,3.197,9.886,3.197c5.264,0,10.451-2.44,13.772-7.039C457.136,338.611,455.419,328.013,447.828,322.545z"/>
	</g>
</g>
<g>
	<g>
		<path d="M292.065,287.418c-1.672-9.208-10.496-15.31-19.705-13.637c-9.207,1.672-15.321,10.496-13.636,19.705
			c1.49,8.191,8.621,13.92,16.653,13.92c1.007,0,2.022-0.09,3.051-0.282C287.636,305.45,293.736,296.626,292.065,287.418z"/>
	</g>
</g>
<g>
	<g>
		<path d="M349.79,306.523c-9.367,0.023-16.937,7.627-16.914,16.982c0.023,9.344,7.603,16.914,16.948,16.914
			c0.011,0,0.023,0,0.033,0c9.355-0.023,16.937-7.627,16.915-16.982C366.748,314.071,359.145,306.501,349.79,306.523z"/>
	</g>
</g>
<g>
	<g>
		<path d="M395.199,306.422c-9.355,0.023-16.925,7.627-16.903,16.993c0.011,9.344,7.603,16.903,16.948,16.903
			c0.011,0,0.023,0,0.033,0c9.355-0.011,16.925-7.615,16.903-16.982C412.169,313.981,404.565,306.41,395.199,306.422z"/>
	</g>
</g>
<g>
	<g>
		<path d="M389.052,443.745c-9.367,0.023-16.937,7.627-16.924,16.982c0.023,9.355,7.603,16.914,16.948,16.914
			c0.011,0,0.023,0,0.033,0c9.355-0.011,16.937-7.615,16.915-16.97C406.01,451.304,398.408,443.733,389.052,443.745z"/>
	</g>
</g>
<g>
	<g>
		<path d="M335.147,225.818c-9.367,0.023-16.937,7.627-16.914,16.982c0.023,9.355,7.603,16.914,16.948,16.914
			c0.011,0,0.021,0,0.033,0c9.367-0.023,16.937-7.627,16.915-16.982C352.105,233.365,344.502,225.795,335.147,225.818z"/>
	</g>
</g>
<g>
	<g>
		<path d="M381.652,225.818c-9.367,0.023-16.937,7.627-16.914,16.982c0.023,9.355,7.603,16.914,16.948,16.914
			c0.011,0,0.023,0,0.033,0c9.367-0.023,16.937-7.627,16.915-16.982C398.61,233.365,391.007,225.795,381.652,225.818z"/>
	</g>
</g>
<g>
	<g>
		<path d="M252.803,443.993c-9.355,0.011-16.937,7.615-16.914,16.982c0.011,9.344,7.593,16.914,16.937,16.914
			c0.011,0,0.023,0,0.034,0c9.367-0.023,16.937-7.615,16.914-16.982C269.762,451.552,262.158,443.971,252.803,443.993z"/>
	</g>
</g>
<g>
	<g>
		<path d="M305.114,240.54c-5.502-7.581-16.101-9.254-23.671-3.751c0-0.011,0-0.011,0-0.011c-7.57,5.502-9.252,16.1-3.75,23.682
			c3.31,4.565,8.485,6.983,13.727,6.983c3.446,0,6.938-1.051,9.943-3.231C308.933,258.708,310.616,248.11,305.114,240.54z"/>
	</g>
</g>
<g>
	<g>
		<path d="M343.631,443.835c-9.354,0.011-16.937,7.615-16.914,16.97c0.011,9.355,7.593,16.925,16.948,16.925
			c0.011,0,0.011,0,0.023,0c9.367-0.023,16.937-7.627,16.925-16.982C360.59,451.383,352.987,443.813,343.631,443.835z"/>
	</g>
</g>
<g>
	<g>
		<circle cx="431.493" cy="121.777" r="19.84"/>
	</g>
</g>
<g>
	<g>
		<circle cx="111.291" cy="280.884" r="24.315"/>
	</g>
</g>
</svg>